<?xml version="1.0" encoding="utf-8"?>
<!-- Generator: Adobe Illustrator 16.0.4, SVG Export Plug-In . SVG Version: 6.00 Build 0)  -->
<!DOCTYPE svg PUBLIC "-//W3C//DTD SVG 1.1//EN" "http://www.w3.org/Graphics/SVG/1.1/DTD/svg11.dtd">
<svg version="1.1" id="Capa_1" xmlns="http://www.w3.org/2000/svg" xmlns:xlink="http://www.w3.org/1999/xlink" x="0px" y="0px"
	 width="230.122px" height="230.122px" viewBox="0 0 230.122 230.122" enable-background="new 0 0 230.122 230.122"
	 xml:space="preserve">
<g>
	<g>
		<path d="M174.177,41.724c-5.723-10.562-13.026-20.623-22.865-27.707c-8.498-6.119-18.725-9.635-29.152-10.358
			c-10.422-0.722-21.525,1.219-30.625,6.502c-5.365,3.113-9.934,7.403-13.305,12.612c-3.169,4.897-5.367,10.347-6.976,15.935
			c-3.36,11.675-4.497,23.857-5.657,35.905c-1.202,12.486-2.527,25.006-5.672,37.182c-1.547,6.055-3.76,12.023-6.442,17.664
			c-2.504,5.268-5.665,10.155-9.313,14.704c0.14-0.176,0.156-0.194-0.014,0.017c-4.94,6.15-9.478,12.759-12.713,19.979
			c-3.108,6.93-5.151,14.926-3.021,22.44c1.094,3.856,3.274,7.291,6.124,10.093c4.007,3.938,9.302,6.221,14.735,7.398
			c5.92,1.285,11.989,1.24,17.981,0.589c1.09-0.118,2.128-0.184,3.21-0.113c1.012,0.064,2.109,0.121,3.06,0.487
			c1.039,0.396,2.056,0.791,2.978,1.424c1.143,0.783,2.216,1.681,3.155,2.7c3.835,4.156,6.988,9.03,12.002,11.919
			c2.24,1.29,4.639,1.93,7.221,1.898c2.667-0.033,5.307-0.523,7.846-1.324c5.111-1.61,9.753-4.365,14.438-6.905
			c2.367-1.284,4.764-2.518,7.25-3.56c1.031-0.434,2.049-0.835,3.142-1.067c0.444-0.093,0.887-0.233,1.34-0.259
			c1.896-0.116,3.415,0.895,4.136,1.455c1.682,1.314,3.002,3.021,4.346,4.666c2.36,2.894,4.654,5.921,7.54,8.322
			c2.066,1.719,4.384,2.921,7.022,3.472c2.366,0.494,4.808,0.469,7.16-0.086c5.248-1.235,9.818-4.728,13.273-8.762
			c3.885-4.537,6.644-9.955,8.812-15.49c2.154-5.51,3.777-11.239,5.113-16.999c2.732-11.775,4.084-23.839,4.55-35.906
			c0.478-12.396,0.174-24.835-1.019-37.183c-1.198-12.394-3.298-24.734-6.388-36.8C184.36,64.495,180.125,52.701,174.177,41.724z
			 M114.504,53.524c0.367,4.863-1.219,10.067-4.527,13.694c-3.146,3.446-8.184,5.62-12.872,5.063
			c-4.241-0.502-7.641-3.469-8.561-7.667c-1.007-4.591,0.861-9.441,3.786-12.956c1.062-1.277,2.29-2.414,3.641-3.378
			c-1.357,0.967-1.894,1.349-1.941,1.382c0.062-0.043,1.003-0.714,1.944-1.384c-0.002,0.001-0.001,0.002-0.004,0.002
			c0.002-0.001,0.004-0.002,0.005-0.004c3.375-2.403,1.692-1.204,0.006-0.002c3.374-2.403,7.93-4.867,12.228-3.917
			C112.398,45.283,114.209,49.629,114.504,53.524z M156.936,58.037c0.272,4.205-1.215,8.77-4.98,11.038
			c-3.876,2.334-8.697,1.389-12.296-1.011c-4.374-2.912-6.954-7.594-8.11-12.626c-0.897-3.913-1.088-9.103,2.552-11.74
			c0.833-0.604,1.796-1.011,2.793-1.255c-0.673,0.165-1.342,0.329-1.66,0.406c0.249-0.062,0.763-0.188,1.665-0.407
			c0.32-0.079,0.583-0.143,0.812-0.198c0.267-0.065,0.507-0.124,0.688-0.169c-0.162,0.04-0.394,0.096-0.688,0.169
			c-0.253,0.062-0.528,0.129-0.808,0.197c4.404-1.074,9.307,0.586,12.916,3.113C153.993,48.473,156.602,52.937,156.936,58.037z"/>
		<path d="M44.158,144.179c0.004-0.005,0.009-0.01,0.014-0.016C43.071,145.533,34.196,156.585,44.158,144.179z"/>
	</g>
</g>
</svg>
